<?xml version="1.0" encoding="utf-8"?>
<!-- Generator: Adobe Illustrator 28.4.1, SVG Export Plug-In . SVG Version: 6.00 Build 0)  -->
<svg version="1.1" id="Calque_1" xmlns="http://www.w3.org/2000/svg" xmlns:xlink="http://www.w3.org/1999/xlink" x="0px" y="0px"
	 viewBox="0 0 95.9 95.7" style="enable-background:new 0 0 95.9 95.7;" xml:space="preserve">
<style type="text/css">
	.st0{fill:#061491;}
</style>
<path class="st0" d="M48,0.3C21.8,0.3,0.5,21.6,0.5,47.8S21.8,95.3,48,95.3S95.5,74,95.5,47.8S74.2,0.3,48,0.3z M68.9,26.3
	c1.7,0,3.5,0.7,4.8,2c2.6,2.6,2.6,7,0,9.6L44.9,66.6c-2.6,2.6-7,2.6-9.6,0L22.5,53.8c-2.6-2.6-2.6-7,0-9.6c2.6-2.6,7-2.6,9.6,0l8,8
	l24-24C65.4,26.9,67.1,26.3,68.9,26.3L68.9,26.3z"/>
</svg>
