<?xml version="1.0" encoding="utf-8"?>
<!-- Generator: Adobe Illustrator 28.4.1, SVG Export Plug-In . SVG Version: 6.00 Build 0)  -->
<svg version="1.1" id="Calque_1" xmlns="http://www.w3.org/2000/svg" xmlns:xlink="http://www.w3.org/1999/xlink" x="0px" y="0px"
	 viewBox="0 0 91.1 91.1" style="enable-background:new 0 0 91.1 91.1;" xml:space="preserve">
<style type="text/css">
	.st0{fill:#FFFFFF;}
</style>
<path class="st0" d="M115.1,28.4v-1.8H113c0-0.3-0.1-0.7,0-0.8c0.1-0.1,0.4-0.2,1.1-0.2v-2c-1.2,0-2.1,0.3-2.6,0.9
	c-0.6,0.6-0.6,1.4-0.5,2.1h-1.9v1.8c-1.8,1-3,3-3,5.2c0,3.3,2.7,6,6,6c3.3,0,6-2.7,6-6C118.1,31.3,116.9,29.4,115.1,28.4z
	 M115.7,32.6c-0.1,0-0.2,0.1-0.2,0.1c-0.2,0-0.3-0.1-0.4-0.3c-0.2-0.4-0.5-0.8-0.9-1.1c-0.4-0.3-0.8-0.5-1.2-0.6
	c-0.4-0.1-0.9-0.1-1.3-0.1c-0.5,0.1-0.9,0.2-1.3,0.4c-0.4,0.2-0.8,0.5-1.1,0.9c-0.2,0.2-0.5,0.3-0.7,0.1c-0.2-0.2-0.3-0.5-0.1-0.7
	c0.4-0.5,0.8-0.9,1.4-1.2c0.5-0.3,1.1-0.5,1.6-0.5c0.6-0.1,1.2,0,1.7,0.1c0.6,0.2,1.1,0.4,1.6,0.8c0.5,0.4,0.9,0.8,1.2,1.4
	C116,32.1,115.9,32.4,115.7,32.6z"/>
<path class="st0" d="M139.6,79.2v-1.7c0-0.6-0.4-1-1-1h-10c-0.6,0-1,0.4-1,1v12c0,0.6,0.4,1,1,1h10c0.6,0,1-0.4,1-1V88
	c2.2-0.2,4-2.1,4-4.4C143.6,81.3,141.8,79.4,139.6,79.2z M130.6,88c0,0.3-0.2,0.5-0.5,0.5c-0.3,0-0.5-0.2-0.5-0.5v-9
	c0-0.3,0.2-0.5,0.5-0.5c0.3,0,0.5,0.2,0.5,0.5V88z M139.6,86v-4.8c1.1,0.2,2,1.2,2,2.4C141.6,84.8,140.7,85.8,139.6,86z"/>
<g>
	<path class="st0" d="M104.9,60.9v7c0,1.1,0.9,2,2,2v-11C105.8,58.9,104.9,59.8,104.9,60.9z"/>
	<path class="st0" d="M118.9,58.9v11c1.1,0,2-0.9,2-2v-7C120.9,59.8,120,58.9,118.9,58.9z"/>
	<path class="st0" d="M115.9,57.4c0-0.8-0.7-1.5-1.5-1.5h-3c-0.8,0-1.5,0.7-1.5,1.5v1.5h-2v11h10v-11h-2V57.4z M110.9,57.9h4v1h-4
		V57.9z"/>
</g>
<g>
	<path class="st0" d="M137.3,13.1l2.7-1l-0.4-1.1l-1.4,0.5l-2-5.4l0,0l-5-0.2V5h3.7V3.6h-3.7V1.3c0.8-0.1,1.3-0.8,1.3-1.6
		c0-0.9-0.7-1.7-1.7-1.7c-0.9,0-1.7,0.7-1.7,1.7c0,0.5,0.2,1,0.6,1.3v6.3h0.4l4.9,0.2L137.3,13.1z"/>
	<path class="st0" d="M135.4,10.2c-0.8,2.2-2.7,3.2-4.4,3.2c-2.5,0-4.5-2-4.5-4.5c0-1.8,1.1-3.4,2.7-4.1V3.6c-2.1,0.8-3.7,3-3.7,5.3
		c0,3,2.5,5.5,5.5,5.5c2.1,0,3.9-1.1,4.9-3L135.4,10.2z"/>
</g>
<g>
	<path class="st0" d="M214.4,43.6c0.1-0.1,0.1-0.2,0.1-0.4c0.8,0.6,1.6,1.3,2.3,2.1c0.3-0.6,0.5-1.2,0.5-1.9c0-2.1-1.7-3.8-3.8-3.8
		c-1.3,0-2.4,0.6-3.1,1.6c0.8,0.2,1.7,0.5,2.4,0.9c-0.1,0.1-0.2,0.2-0.3,0.4l-0.3,0.5c-0.9-0.4-1.9-0.7-3-0.7
		c-1.2,0-2.2,0.3-3.2,0.8c0,0,0,0,0,0l-0.3-0.6c-0.1-0.1-0.1-0.2-0.2-0.2c0.8-0.4,1.7-0.8,2.6-1c-0.7-1-1.8-1.6-3.1-1.6
		c-2.1,0-3.8,1.7-3.8,3.8c0,0.7,0.2,1.3,0.5,1.9c0.6-0.7,1.3-1.4,2-1.9c0,0.1,0,0.1,0.1,0.2l0.3,0.6c0,0.1,0.1,0.1,0.1,0.2
		c-1.4,1.3-2.4,3.3-2.4,5.4c0,1.9,0.7,3.6,1.9,4.9c-0.6,0.3-1,0.9-1,1.6c0,1,0.8,1.8,1.8,1.8c0.9,0,1.7-0.7,1.8-1.6
		c0.9,0.4,1.9,0.6,2.9,0.6c1.1,0,2.1-0.2,3.1-0.7c0.1,0.9,0.8,1.7,1.8,1.7c1,0,1.8-0.8,1.8-1.8c0-0.8-0.5-1.4-1.2-1.7
		c1.1-1.3,1.8-3,1.8-4.8c0-2.2-1-4.2-2.5-5.5c0,0,0,0,0,0L214.4,43.6z M214.5,49.7c0,3-2.4,5.4-5.4,5.4s-5.4-2.4-5.4-5.4
		s2.4-5.4,5.4-5.4S214.5,46.7,214.5,49.7z"/>
	<path class="st0" d="M211.8,49.8h-1.9v-3.4c0-0.3-0.3-0.5-0.7-0.5c-0.4,0-0.7,0.2-0.7,0.5v4.2c0,0.3,0.3,0.5,0.7,0.5
		c0,0,0.1,0,0.1,0h2.5c0.2,0,0.3-0.3,0.3-0.7C212.1,50.1,211.9,49.8,211.8,49.8z"/>
</g>
<g>
	<path class="st0" d="M22.1,12.7h48.7c2.4,0,4.3-2.7,4.3-6.1s-1.9-6.1-4.3-6.1H22.1c-2.4,0-4.4,2.7-4.4,6.1S19.7,12.7,22.1,12.7z"/>
	<path class="st0" d="M70.7,78.2H22.1c-2.4,0-4.4,2.7-4.4,6.1c0,3.4,1.9,6.1,4.4,6.1h48.7c2.4,0,4.3-2.7,4.3-6.1
		C75.1,80.9,73.1,78.2,70.7,78.2z"/>
	<path class="st0" d="M64.6,17.7H28.2c-0.9,2.2-1.3,4.6-1.3,7.1c0,10.8,8.8,19.6,19.6,19.6c10.8,0,19.6-8.8,19.6-19.6
		C66,22.3,65.5,19.9,64.6,17.7z"/>
	<path class="st0" d="M64.6,73.7c0.9-2.2,1.3-4.6,1.3-7.1C66,55.8,57.2,47,46.4,47c-10.8,0-19.6,8.8-19.6,19.6
		c0,2.5,0.5,4.9,1.3,7.1H64.6z"/>
</g>
<g>
	<path class="st0" d="M274.4,39.4c-4.4,0-8,3.6-8,8s3.6,8,8,8s8-3.6,8-8S278.8,39.4,274.4,39.4z M274.4,54.4c-3.9,0-7-3.1-7-7
		c0-3.9,3.1-7,7-7s7,3.1,7,7C281.4,51.2,278.3,54.4,274.4,54.4z"/>
	<ellipse class="st0" cx="272.4" cy="44.9" rx="1" ry="1.5"/>
	<ellipse class="st0" cx="276.4" cy="44.9" rx="1" ry="1.5"/>
	<circle class="st0" cx="274.4" cy="50.4" r="2"/>
</g>
<path class="st0" d="M504.6,51.4l-0.8-7c-0.1-0.5-0.6-1-1.1-1h-2.1v-1h2.1v-3h-6v3h2.1v1h-6.1c-0.5,0-1,0.4-1.1,1l-0.8,7h-1.1v4h16
	v-4H504.6z M500.7,45.4h1v1h-1V45.4z M500.7,47.4h1v1h-1V47.4z M500.7,49.4h1v1h-1V49.4z M497.7,41.4v-1h4v1H497.7z M498.7,45.4h1v1
	h-1V45.4z M498.7,47.4h1v1h-1V47.4z M498.7,49.4h1v1h-1V49.4z M492.7,45.4h4v2h-4V45.4z M504.7,53.4h-14v-1h14V53.4z"/>
<g>
	<path class="st0" d="M398.3,87.6c-0.7-1.2-2-3.7-3.6-5.6c0,0-1.9,0-2-0.1c1.2,1.7,2.5,3.8,2.9,5.6c-3.2,0.1-5.9,1.3-7.1,3h14.5
		C401.9,89,400.5,88,398.3,87.6z"/>
	<path class="st0" d="M389.4,79.4c-0.7,1.2-1,2.8,0.2,6c0-1.7,1.2-4.2,2-5c1,0,2,1,2,1c0-1-0.3-1.5-0.6-2.1c1.6-0.1,4,0.2,4.6,2.1
		c-1-3-3-4-4-4c1-1,1-1,3-1c-3.1-2.3-5-0.5-5.7,0.5c-0.3-0.7-0.3-1.8-0.3-2.5c0,0-1,1-1.2,2.4c-1.2-0.4-2.5-1.4-2.5-1.4
		c0.4,0.4,1,2,1.4,2.2c-1.6,1.3-1.4,4.8-1.4,4.8C387.8,80.5,388.5,79.6,389.4,79.4z"/>
</g>
<path class="st0" d="M464.7,77.6c0-0.1,0-0.1,0-0.2c0-1.6-1.2-2.9-2.8-3c-0.6-0.6-1.3-1-2.2-1c-1.1,0-2,0.6-2.5,1.4
	c-0.4-0.2-0.9-0.4-1.5-0.4c-1.7,0-3,1.3-3,3c0,0.1,0,0.1,0,0.2c-1.2,0.4-2,1.5-2,2.8c0,1.7,1.3,3,3,3c0.5,0,1.1-0.2,1.5-0.4
	c0.4,0.3,1,0.4,1.5,0.4c0.4,0,0.7-0.1,1-0.2v5.2h-1v1h4v-1h-1v-5c0.2,0,0.3,0,0.5-0.1c0.2,0,0.3,0.1,0.5,0.1c0.5,0,1.1-0.2,1.5-0.4
	c0.4,0.3,1,0.4,1.5,0.4c1.7,0,3-1.3,3-3C466.8,79.1,465.9,78,464.7,77.6z"/>
<g>
	<path class="st0" d="M255.1,85.9H254v-1.5c1.5-0.9,2.5-2.7,2.5-4.8c0-3-2-5.4-4.4-5.4c-2.4,0-4.4,2.4-4.4,5.4c0,2.1,1,4,2.5,4.9
		v1.5h-1.3c-3.1,0-5.6,2.2-6.3,5.1h18.8C260.8,88.1,258.2,85.9,255.1,85.9z"/>
	<path class="st0" d="M294.6,59.3h-55.4c-1.4,0-2.6,1.2-2.6,2.6v37.3c0,1.4,1.2,2.6,2.6,2.6h55.4c1.4,0,2.6-1.2,2.6-2.6V61.8
		C297.2,60.4,296,59.3,294.6,59.3z M277.9,63.1h9.9v2.1h-9.9V63.1z M262.2,91h-20.4v-20h20.4V91z M286.7,88.7h-21.5v-2.1h21.5V88.7z
		 M291.8,82.3h-26.6v-2.1h26.6V82.3z M291.8,75.9h-26.6v-2.1h26.6V75.9z"/>
</g>
</svg>
