<svg width="480" height="480" viewBox="0 0 480 480" fill="none" xmlns="http://www.w3.org/2000/svg">
<g clip-path="url(#clip0_35_148)">
<mask id="mask0_35_148" style="mask-type:luminance" maskUnits="userSpaceOnUse" x="358" y="222" width="63" height="72">
<path d="M358.071 222.156H421V293.001H358.071V222.156Z" fill="white"/>
</mask>
<g mask="url(#mask0_35_148)">
<path d="M372.565 292.699C369.677 292.699 366.793 292.711 363.905 292.696C360.761 292.68 358.851 290.577 358.838 287.022C358.806 280.485 358.809 273.952 358.833 267.415C358.847 263.775 360.74 261.7 363.968 261.695C368.162 261.691 372.357 261.723 376.552 261.691C383.301 261.633 388.359 256.728 389.385 249.312C389.676 247.198 389.215 245.153 388.976 243.084C387.901 233.72 393.25 225.067 401.449 222.933C410.649 220.54 419.648 227.559 420.858 238.07C422.28 250.399 412.795 260.731 401.962 258.509C396.911 257.474 392.654 258.76 389.257 263.17C387.201 265.842 386.302 269.036 386.296 272.56C386.289 277.393 386.3 282.232 386.293 287.065C386.286 290.554 384.427 292.672 381.339 292.696C378.417 292.716 375.491 292.699 372.565 292.699Z" fill="#E81E33"/>
</g>
<path d="M339.84 255.047C335.607 255.047 331.371 255.027 327.139 255.071C326.352 255.078 326.099 254.87 326.102 253.933C326.136 244.305 326.134 234.676 326.099 225.047C326.095 224.012 326.407 223.854 327.218 223.862C332.415 223.902 337.611 223.886 342.808 223.882C349.585 223.874 355.478 219.385 358.054 212.272C358.57 210.847 358.84 209.372 358.833 207.822C358.815 202.941 358.823 198.065 358.827 193.183C358.833 189.04 360.628 187.004 364.283 187.004C369.902 187.004 375.522 187 381.141 187.004C384.445 187.008 386.293 189.095 386.293 192.819C386.296 199.312 386.3 205.802 386.293 212.295C386.289 215.948 384.431 218.059 381.214 218.063C377.251 218.071 373.286 218.134 369.324 218.051C362.681 217.914 358.376 221.936 355.318 228.088C354.074 230.588 353.668 233.404 353.668 236.281C353.679 242.119 353.648 247.957 353.696 253.796C353.703 254.847 353.429 255.082 352.542 255.071C348.309 255.02 344.076 255.047 339.84 255.047Z" fill="#E81E33"/>
<path d="M219.192 242.83C219.192 237.69 219.216 232.55 219.167 227.41C219.161 226.472 219.425 226.139 220.204 225.966C231.634 223.415 243.174 222.879 254.78 223.505C260.857 223.832 266.885 224.612 272.866 225.926C273.743 226.119 274.061 226.456 274.037 227.504C273.971 230.467 273.978 233.429 274.034 236.387C274.054 237.376 273.878 237.635 272.969 237.462C265.221 235.964 257.407 235.257 249.553 235.01C243.572 234.821 237.645 235.367 231.72 236.188C231.155 236.266 230.926 236.482 230.926 237.157C230.94 240.903 230.923 244.647 230.899 248.394C230.895 249.112 231.075 249.406 231.793 249.524C243.579 251.458 255.349 250.866 267.113 249.297C269.173 249.021 271.226 248.661 273.274 248.284C273.836 248.182 274.027 248.284 274.023 248.955C274.003 252.224 273.996 255.488 274.027 258.757C274.034 259.513 273.634 259.576 273.167 259.686C269.624 260.514 266.047 261.091 262.452 261.514C253.838 262.528 245.163 262.712 236.521 262.063C231.069 261.659 225.65 260.949 220.284 259.745C219.445 259.556 219.161 259.247 219.167 258.25C219.216 253.11 219.192 247.97 219.192 242.83ZM163.512 241.739C163.512 247.967 163.48 254.107 163.536 260.247C163.546 261.435 163.286 261.789 162.211 261.758C159.095 261.671 155.978 261.703 152.858 261.746C152.092 261.758 151.795 261.577 151.797 260.612C151.833 248.761 151.831 236.911 151.791 225.06C151.787 223.581 152.463 224.076 153.08 224.244C161.393 226.524 169.207 230.223 176.671 234.92C182.425 238.538 188.048 242.391 193.442 246.663C193.653 246.832 193.827 247.099 194.271 247.056V245.835C194.271 238.997 194.291 232.155 194.249 225.314C194.243 224.232 194.395 223.812 195.48 223.844C198.673 223.941 201.87 223.902 205.065 223.859C205.773 223.851 205.981 224.08 205.981 224.887C205.96 236.823 205.96 248.763 205.977 260.702C205.981 261.487 205.791 261.754 205.069 261.747C201.72 261.707 198.372 261.703 195.023 261.747C194.322 261.757 193.878 261.357 193.387 260.941C184.471 253.428 175.048 246.887 164.718 242.132C164.434 241.997 164.149 241.867 163.861 241.743C163.796 241.72 163.712 241.739 163.512 241.739ZM118.321 232.668C118.15 232.813 117.895 233.001 117.669 233.228C110.191 240.817 102.715 248.408 95.24 256.001C93.2361 258.038 91.2154 260.059 89.232 262.118C88.7785 262.59 88.4972 262.633 88.0082 262.139C78.4858 252.436 68.9457 242.752 59.395 233.084C58.9131 232.598 58.8368 232.33 59.3639 231.801C61.9803 229.167 64.5688 226.497 67.1291 223.793C67.7397 223.145 68.0033 223.537 68.4115 223.98C74.8562 230.972 81.3248 237.933 87.7348 244.964C88.498 245.8 88.8442 245.647 89.5168 244.914C95.9127 237.933 102.354 231.001 108.746 224.012C109.376 223.318 109.699 223.361 110.303 224.005C112.74 226.602 115.228 229.137 117.693 231.703C117.912 231.927 118.206 232.088 118.321 232.668ZM299.076 242.858C299.076 248.734 299.058 254.609 299.09 260.486C299.097 261.424 298.93 261.77 298.025 261.754C294.679 261.695 291.332 261.694 287.986 261.75C287.165 261.762 286.964 261.472 286.964 260.569C286.992 248.728 286.991 236.888 286.96 225.048C286.957 224.004 287.276 223.848 288.087 223.859C291.394 223.906 294.705 223.914 298.012 223.855C298.892 223.835 299.101 224.134 299.094 225.095C299.056 231.016 299.076 236.938 299.076 242.858ZM126.374 242.707C126.374 236.874 126.401 231.036 126.35 225.201C126.339 224.083 126.634 223.835 127.573 223.852C130.842 223.918 134.114 223.906 137.387 223.859C138.16 223.848 138.438 224.024 138.434 224.985C138.406 236.876 138.406 248.768 138.434 260.659C138.434 261.538 138.202 261.754 137.46 261.746C134.111 261.707 130.762 261.687 127.414 261.754C126.499 261.774 126.353 261.408 126.356 260.482C126.391 254.558 126.374 248.632 126.374 242.707Z" fill="#0D528F"/>
<mask id="mask1_35_148" style="mask-type:luminance" maskUnits="userSpaceOnUse" x="310" y="275" width="16" height="19">
<path d="M310.148 275.392H325.235V293.001H310.148V275.392Z" fill="white"/>
</mask>
<g mask="url(#mask1_35_148)">
<path d="M313.734 280.355C313.734 284.173 313.691 287.775 313.757 291.374C313.778 292.472 313.508 292.875 312.554 292.707C312.214 292.648 311.861 292.675 311.514 292.703C311.032 292.743 310.828 292.55 310.828 291.969C310.841 286.834 310.838 281.697 310.841 276.561C310.841 276.314 310.817 276.067 311.105 275.925C312.031 275.47 314.2 276.09 314.8 277.012C317.006 280.414 319.21 283.816 321.425 287.237C321.793 287.021 321.598 286.633 321.603 286.338C321.609 283.251 321.627 280.159 321.574 277.071C321.56 276.188 321.727 275.859 322.573 275.882C324.528 275.929 324.528 275.874 324.528 278.056C324.528 282.537 324.5 287.021 324.552 291.506C324.562 292.511 324.282 292.675 323.453 292.742C322.147 292.852 321.376 292.303 320.638 291.103C318.448 287.536 316.128 284.063 313.734 280.355Z" fill="#0D528F"/>
</g>
<mask id="mask2_35_148" style="mask-type:luminance" maskUnits="userSpaceOnUse" x="186" y="275" width="15" height="19">
<path d="M186.793 275.392H200.992V293.001H186.793V275.392Z" fill="white"/>
</mask>
<g mask="url(#mask2_35_148)">
<path d="M197.709 287.547C197.709 283.851 197.751 280.496 197.682 277.149C197.661 276.074 197.977 275.745 198.846 275.906C198.922 275.917 198.999 275.917 199.075 275.906C200.236 275.678 200.618 276.137 200.593 277.542C200.504 282.198 200.531 286.86 200.584 291.518C200.593 292.529 200.309 292.675 199.488 292.749C198.212 292.867 197.481 292.314 196.766 291.16C194.572 287.613 192.267 284.153 189.819 280.37V284.153C189.819 286.46 189.837 288.767 189.806 291.074C189.802 291.604 190.09 292.463 189.573 292.609C188.779 292.828 187.899 292.691 187.06 292.62C186.793 292.597 186.897 292.185 186.897 291.942C186.89 286.849 186.89 281.752 186.893 276.659C186.893 276.408 186.831 276.122 187.067 275.945C187.673 275.486 190.29 276.093 190.748 276.796C193.011 280.296 195.279 283.797 197.709 287.547Z" fill="#0D528F"/>
</g>
<mask id="mask3_35_148" style="mask-type:luminance" maskUnits="userSpaceOnUse" x="228" y="275" width="14" height="19">
<path d="M228.503 275.392H241.815V293.001H228.503V275.392Z" fill="white"/>
</mask>
<g mask="url(#mask3_35_148)">
<path d="M232.615 281.021V282.461C232.615 284.573 232.691 284.651 234.559 284.392C236.532 284.121 237.561 283.16 237.721 281.438C237.967 278.785 236.834 277.47 234.303 277.474C232.687 277.478 232.618 277.557 232.615 279.323V281.021ZM236.234 285.298C238.096 287.821 239.822 290.152 241.704 292.702C240.414 292.702 239.322 292.695 238.23 292.706C237.703 292.714 237.534 292.22 237.284 291.859C235.794 289.717 234.32 287.562 232.615 285.086C232.615 287.543 232.587 289.606 232.628 291.666C232.646 292.44 232.5 292.721 231.755 292.73C229.193 292.761 229.193 292.8 229.193 289.928C229.193 285.876 229.225 281.822 229.172 277.774C229.162 276.867 229.387 276.428 230.167 276.223C232.718 275.544 235.27 275.356 237.814 276.176C239.243 276.639 240.414 277.522 240.913 279.213C241.711 281.885 240.349 284.294 237.654 285.004C237.249 285.11 236.834 285.176 236.234 285.298Z" fill="#0D528F"/>
</g>
<mask id="mask4_35_148" style="mask-type:luminance" maskUnits="userSpaceOnUse" x="293" y="275" width="15" height="19">
<path d="M293.287 275.392H307.486V293.001H293.287V275.392Z" fill="white"/>
</mask>
<g mask="url(#mask4_35_148)">
<path d="M303.839 284.204C303.857 282.761 303.784 281.332 303.275 279.986C302.74 278.594 301.843 277.755 300.449 277.75C299.063 277.742 298.061 278.504 297.596 279.932C296.682 282.753 296.664 285.637 297.572 288.466C298.037 289.913 299.052 290.6 300.443 290.595C301.843 290.592 302.762 289.839 303.295 288.423C303.805 287.073 303.853 285.64 303.839 284.204ZM300.398 292.943C295.648 292.931 292.892 289.015 293.491 283.117C294.064 277.432 297.458 274.666 302.377 275.89C304.786 276.491 306.27 278.229 306.959 280.85C307.486 282.843 307.518 284.895 307.147 286.923C306.422 290.906 304.1 292.947 300.398 292.943Z" fill="#0D528F"/>
</g>
<mask id="mask5_35_148" style="mask-type:luminance" maskUnits="userSpaceOnUse" x="169" y="275" width="16" height="19">
<path d="M169.044 275.392H184.131V293.001H169.044V275.392Z" fill="white"/>
</mask>
<g mask="url(#mask5_35_148)">
<path d="M179.951 284.342C179.978 282.898 179.863 281.474 179.399 280.12C178.897 278.653 177.984 277.774 176.539 277.746C175.19 277.722 174.147 278.469 173.637 280.046C172.757 282.788 172.757 285.59 173.607 288.336C174.105 289.957 175.135 290.627 176.633 290.588C178.015 290.548 178.949 289.78 179.458 288.188C179.857 286.947 179.971 285.652 179.951 284.342ZM169.575 284.263C169.575 283.875 169.554 283.479 169.578 283.09C169.949 276.953 175.285 273.638 180.099 276.557C181.732 277.547 182.654 279.155 183.112 281.124C183.52 282.87 183.576 284.656 183.302 286.433C182.585 291.051 180.099 293.174 175.766 292.915C172.198 292.704 169.845 289.913 169.581 285.57C169.554 285.134 169.578 284.699 169.575 284.263Z" fill="#0D528F"/>
</g>
<mask id="mask6_35_148" style="mask-type:luminance" maskUnits="userSpaceOnUse" x="244" y="275" width="13" height="19">
<path d="M244.478 275.392H256.902V293.001H244.478V275.392Z" fill="white"/>
</mask>
<g mask="url(#mask6_35_148)">
<path d="M244.63 282.434C244.63 280.606 244.675 278.778 244.613 276.953C244.582 276.062 244.859 275.881 245.587 275.885C248.097 275.897 248.097 275.865 248.097 278.722C248.097 281.638 248.09 284.557 248.1 287.472C248.107 289.501 249.102 290.56 250.94 290.536C252.683 290.513 253.64 289.441 253.647 287.461C253.658 284.019 253.678 280.582 253.633 277.141C253.619 276.223 253.758 275.85 254.68 275.877C256.878 275.941 256.878 275.881 256.878 278.425V286.786C256.878 290.27 255.591 292.121 252.565 292.777C250.846 293.149 249.106 293.099 247.466 292.282C245.66 291.38 244.592 289.881 244.627 287.531C244.651 285.832 244.63 284.133 244.63 282.434Z" fill="#0D528F"/>
</g>
<mask id="mask7_35_148" style="mask-type:luminance" maskUnits="userSpaceOnUse" x="203" y="275" width="12" height="19">
<path d="M203.654 275.392H214.304V293.001H203.654V275.392Z" fill="white"/>
</mask>
<g mask="url(#mask7_35_148)">
<path d="M207.88 292.958C206.718 292.942 205.571 292.809 204.472 292.365C204.101 292.216 203.505 292.111 203.942 291.443C204.274 290.93 203.99 289.603 205.151 290.082C206.094 290.467 207.098 290.624 208.097 290.544C209.402 290.443 210.303 289.682 210.518 288.544C210.746 287.312 210.286 286.457 208.923 285.754C208.053 285.299 207.121 284.989 206.271 284.494C204.86 283.666 203.869 282.458 203.921 280.5C203.976 278.487 204.947 277.158 206.489 276.361C208.604 275.278 210.761 275.494 212.906 276.283C213.319 276.435 213.662 276.694 213.285 277.209C212.986 277.617 213.246 278.703 212.245 278.307C211.187 277.883 210.108 277.605 208.968 277.926C208.05 278.189 207.446 278.786 207.294 279.837C207.135 280.924 207.62 281.706 208.452 282.16C209.315 282.627 210.23 282.976 211.107 283.411C213.545 284.617 214.46 286.173 214.158 288.571C213.88 290.773 211.981 292.539 209.492 292.867C208.958 292.937 208.418 292.93 207.88 292.958Z" fill="#0D528F"/>
</g>
<mask id="mask8_35_148" style="mask-type:luminance" maskUnits="userSpaceOnUse" x="156" y="275" width="13" height="19">
<path d="M156.619 275.392H168.156V293.001H156.619V275.392Z" fill="white"/>
</mask>
<g mask="url(#mask8_35_148)">
<path d="M164.568 292.938C159.261 292.988 156.095 288.245 157.184 282.258C158.391 275.646 163.577 274.823 167.199 276.204C167.532 276.329 168.176 276.408 167.771 277.133C167.497 277.62 167.65 278.577 166.61 278.263C163.226 277.252 161.285 278.75 160.709 282.653C160.512 283.991 160.56 285.36 160.849 286.675C161.518 289.779 163.681 291.259 166.357 290.27C167.57 289.822 167.476 290.851 167.765 291.466C168.205 292.404 167.369 292.321 167.005 292.487C166.141 292.879 165.212 292.949 164.568 292.938Z" fill="#0D528F"/>
</g>
<mask id="mask9_35_148" style="mask-type:luminance" maskUnits="userSpaceOnUse" x="259" y="275" width="13" height="19">
<path d="M259.563 275.392H271.988V293.001H259.563V275.392Z" fill="white"/>
</mask>
<g mask="url(#mask9_35_148)">
<path d="M267.91 292.938C262.607 292.977 259.47 288.348 260.44 282.482C261.536 275.87 266.586 274.776 270.406 276.172C270.77 276.305 271.457 276.325 271.062 277.169C270.781 277.765 270.798 278.573 269.758 278.228C266.68 277.208 264.527 278.852 264.031 282.431C263.813 284 263.831 285.557 264.257 287.08C265.047 289.909 267.072 291.224 269.567 290.289C270.795 289.83 270.812 290.784 271.069 291.495C271.44 292.51 270.542 292.365 270.156 292.537C269.328 292.907 268.43 292.957 267.91 292.938Z" fill="#0D528F"/>
</g>
<mask id="mask10_35_148" style="mask-type:luminance" maskUnits="userSpaceOnUse" x="215" y="275" width="12" height="19">
<path d="M215.191 275.392H226.728V293.001H215.191V275.392Z" fill="white"/>
</mask>
<g mask="url(#mask10_35_148)">
<path d="M219.307 285.303C219.307 283.22 219.282 281.132 219.32 279.045C219.334 278.276 219.178 277.907 218.436 278.006C217.944 278.068 217.434 277.981 216.939 278.026C216.246 278.08 215.812 278.021 215.815 276.969C215.823 275.949 216.208 275.882 216.921 275.89C219.687 275.93 222.454 275.925 225.221 275.89C225.91 275.882 226.254 275.997 226.223 276.926C226.194 277.722 226.083 278.045 225.283 278.041C222.735 278.025 222.735 278.068 222.735 280.933C222.735 284.494 222.714 288.061 222.753 291.628C222.759 292.456 222.586 292.735 221.809 292.731C219.307 292.723 219.307 292.762 219.307 290V285.303Z" fill="#0D528F"/>
</g>
<mask id="mask11_35_148" style="mask-type:luminance" maskUnits="userSpaceOnUse" x="272" y="275" width="12" height="19">
<path d="M272.876 275.392H283.525V293.001H272.876V275.392Z" fill="white"/>
</mask>
<g mask="url(#mask11_35_148)">
<path d="M276.555 285.353C276.555 283.223 276.53 281.089 276.568 278.958C276.579 278.225 276.388 277.934 275.725 278.004C275.23 278.059 274.713 277.93 274.231 278.032C273.011 278.283 273.049 277.439 273.088 276.505C273.105 276.046 273.271 275.902 273.647 275.906C276.724 275.91 279.799 275.921 282.874 275.898C283.689 275.89 283.429 276.525 283.442 276.976C283.453 277.443 283.646 278.083 282.849 278.024C282.236 277.977 281.612 278.074 281.005 278.001C280.198 277.902 279.965 278.22 279.976 279.146C280.02 283.234 279.969 287.327 280.018 291.415C280.028 292.416 279.827 292.753 278.891 292.726C276.555 292.659 276.555 292.718 276.555 290.054V285.353Z" fill="#0D528F"/>
</g>
<mask id="mask12_35_148" style="mask-type:luminance" maskUnits="userSpaceOnUse" x="286" y="275" width="5" height="19">
<path d="M286.188 275.392H290.625V293.001H286.188V275.392Z" fill="white"/>
</mask>
<g mask="url(#mask12_35_148)">
<path d="M286.471 284.131C286.471 281.693 286.485 279.257 286.461 276.82C286.454 276.192 286.562 275.914 287.207 275.886C289.931 275.756 289.931 275.729 289.931 278.856C289.931 283.121 289.91 287.383 289.949 291.643C289.959 292.515 289.723 292.723 288.984 292.719C286.471 292.711 286.471 292.746 286.471 289.87V284.131Z" fill="#0D528F"/>
</g>
</g>
<defs>
<clipPath id="clip0_35_148">
<rect width="362" height="106" fill="white" transform="translate(59 187)"/>
</clipPath>
</defs>
</svg>
